<?xml version="1.0" encoding="utf-8"?>
<!-- Generator: Adobe Illustrator 21.0.0, SVG Export Plug-In . SVG Version: 6.00 Build 0)  -->
<svg version="1.1" id="图层_1" xmlns="http://www.w3.org/2000/svg" xmlns:xlink="http://www.w3.org/1999/xlink" x="0px" y="0px"
	 viewBox="0 0 240 228" style="enable-background:new 0 0 240 228;" xml:space="preserve">
<style type="text/css">
	.st0{fill:#036EB7;}
	.st1{fill:#007DC5;}
	.st2{fill:#717071;}
	.st3{fill:#8DC21F;}
</style>
<g>
	<path class="st0" d="M84.3,35.8l0-8.9c-16.6,0.1-30,13.6-30,30.2l8.9,0C63.2,45.3,72.6,35.8,84.3,35.8"/>
	<path class="st1" d="M68.6,57l15.8,0l0-15.8C75.6,41.2,68.6,48.3,68.6,57"/>
	<path class="st0" d="M84.3,21.5l0-8.9C59.8,12.7,40,32.6,40,57.1l8.9,0C48.9,37.5,64.7,21.6,84.3,21.5"/>
	<polygon class="st2" points="14.2,207 14.2,221.3 6.5,221.3 6.5,184.6 14.2,184.6 14.2,198.6 28.1,198.6 28.1,184.6 35.9,184.6 
		35.9,221.3 28.1,221.3 28.1,207 	"/>
	<path class="st2" d="M66.9,218.5c-1.3,1.8-3.6,2.7-7.1,2.7H48.5c-3,0-5.3-0.8-6.8-2.4c-1.5-1.6-2.3-4.3-2.3-8.1v-15.6
		c0-3.5,0.8-6.2,2.2-7.9c1.4-1.7,3.7-2.6,6.9-2.7h11.3c3.5,0,5.8,0.9,7.1,2.7c1.3,1.8,1.9,4.4,1.9,7.8v15.6
		C68.8,214.1,68.1,216.7,66.9,218.5 M61,198.8c0-2-0.3-3.5-0.9-4.4c-0.6-0.9-1.9-1.4-3.9-1.4h-4.3c-1.9,0-3.1,0.5-3.8,1.5
		c-0.7,1-1,2.4-1,4.3v8.3c0,1.9,0.3,3.3,1,4.3c0.6,1,1.9,1.5,3.8,1.5h4.3c2,0,3.3-0.5,3.9-1.4c0.6-0.9,0.9-2.4,0.9-4.4V198.8z"/>
	<polygon class="st2" points="79.9,221.3 72.2,221.3 72.2,184.6 79.9,184.6 93.9,205.1 93.9,184.6 101.6,184.6 101.6,221.3 
		93.9,221.3 79.9,200.4 	"/>
	<polygon class="st2" points="115.7,192.9 105.1,192.9 105.1,184.6 134.5,184.6 134.5,192.9 123.4,192.9 123.4,221.3 115.7,221.3 	
		"/>
	<path class="st2" d="M145.7,207c0,1,0.1,1.8,0.2,2.6c0.2,0.7,0.4,1.4,0.8,1.9c0.4,0.5,0.9,0.9,1.5,1.1c0.6,0.3,1.4,0.4,2.3,0.4
		h16.9v8.3H147c-1.7,0-3.2-0.2-4.3-0.7c-1.2-0.4-2.1-1.1-2.8-2c-0.7-0.9-1.2-2-1.5-3.3c-0.3-1.3-0.5-2.9-0.5-4.6v-15.6
		c0-1.8,0.2-3.3,0.5-4.6c0.3-1.3,0.8-2.4,1.5-3.3c0.7-0.9,1.6-1.5,2.8-2c1.2-0.4,2.6-0.7,4.3-0.7h20.3v8.3h-16.9
		c-0.9,0-1.7,0.1-2.3,0.4c-0.6,0.3-1.1,0.6-1.5,1.1c-0.4,0.5-0.6,1.1-0.8,1.8c-0.1,0.7-0.2,1.5-0.2,2.4h21.7v8.3h-19.5H145.7z"/>
	<path class="st2" d="M198.3,218.5c-1.3,1.8-3.6,2.7-7.1,2.7h-11.3c-1.7,0-3.2-0.2-4.3-0.7c-1.2-0.4-2.1-1.1-2.8-2
		c-0.7-0.9-1.2-2-1.5-3.3c-0.3-1.3-0.5-2.9-0.5-4.6v-15.5c0-1.8,0.2-3.3,0.5-4.6c0.3-1.3,0.8-2.4,1.5-3.3c0.7-0.9,1.6-1.5,2.8-2
		c1.2-0.4,2.6-0.7,4.3-0.7h11.3c3.5,0,5.8,0.9,7.1,2.7c1.3,1.8,1.9,4.4,1.9,7.8v3.6h-7.8c0-2-0.3-3.5-0.9-4.4
		c-0.6-0.9-1.9-1.4-3.9-1.4h-4.3c-1.9,0-3.1,0.5-3.8,1.5c-0.7,1-1,2.4-1,4.3v8.3c0,1.9,0.3,3.3,1,4.3c0.6,1,1.9,1.5,3.8,1.5h4.3
		c2.1,0,3.4-0.5,3.9-1.4c0.6-1,0.9-2.4,0.9-4.4h7.8v3.6C200.2,214.1,199.6,216.7,198.3,218.5"/>
	<polygon class="st2" points="211.4,207 211.4,221.3 203.7,221.3 203.7,184.6 211.4,184.6 211.4,198.6 225.3,198.6 225.3,184.6 
		233.1,184.6 233.1,221.3 225.3,221.3 225.3,207 	"/>
	<path class="st0" d="M68.4,130.6c0,3.4,1.3,6.8,3.9,9.4c2.6,2.6,6,3.9,9.4,3.9h33.5V41H81.6c-3.4,0-6.8,1.3-9.4,3.9
		c-2.6,2.6-3.9,6-3.9,9.4V130.6z"/>
	<path class="st0" d="M125.9,82.2v9.9h19.9v51.7h8.3c3,0,5.9-1.1,8.2-3.4c2.3-2.3,3.4-5.2,3.4-8.2V82.2h-19.9H125.9z"/>
	<path class="st3" d="M145.7,53.7v19.9h19.9v-8.3c0-3-1.1-5.9-3.4-8.2c-2.3-2.3-5.2-3.4-8.2-3.4H145.7z"/>
</g>
</svg>
